# xmcd CD database file
#
# Track frame offsets:
#	150
#	10979
#	20405
#	38017
#	47079
#	59202
#	73939
#	91993
#	110057
#	126068
#	142906
#	156643
#	181610
#	196374
#	210518
#	225320
#	239541
#	256121
#	274748
#	288633
#	303373
#
# Disc length: 4217 seconds
#
# Revision: 0
# Processed by: cddbd v1.5.2PL0 Copyright (c) Steve Scherf et al.
# Submitted via: CDex 1.51
#
DISCID=30107715
DTITLE=Tichenor Family Five - Ragtime Reunion
DYEAR=2004
DGENRE=Jazz
TTITLE0=The Thriller
TTITLE1=Pinywoods Rag
TTITLE2=Euphonic Sounds
TTITLE3=Brun Campbell Express
TTITLE4=42nd Street Rag
TTITLE5=Riverside Blues
TTITLE6=Mississippi Rag
TTITLE7=Snag It
TTITLE8=King Chanticleer
TTITLE9=West End Blues
TTITLE10=Pierce City Rag
TTITLE11=Reoberto Clemente
TTITLE12=Willile The Weeper
TTITLE13=Lullaby From Mars
TTITLE14=Harlem Rag
TTITLE15=Virginia's Blues
TTITLE16=King Porter Stomp
TTITLE17=Shake That Thing
TTITLE18=Show-Me Rag
TTITLE19=Kinklets
TTITLE20=It's A Long Way Back Home
EXTD=YEAR: 2004
EXTT0=
EXTT1=
EXTT2=
EXTT3=
EXTT4=
EXTT5=
EXTT6=
EXTT7=
EXTT8=
EXTT9=
EXTT10=
EXTT11=
EXTT12=
EXTT13=
EXTT14=
EXTT15=
EXTT16=
EXTT17=
EXTT18=
EXTT19=
EXTT20=
PLAYORDER=
